<svg width="32" height="32" viewBox="0 0 32 32" fill="none" xmlns="http://www.w3.org/2000/svg">
<circle cx="16" cy="16" r="16" fill="#A9A9A9" fill-opacity="0.5"/>
<path d="M24.7862 18.4742L24.7222 18.8213L25.0278 18.9978L25.5482 19.2984C25.4041 19.6772 25.1997 20.0279 24.9472 20.3369L24.427 20.0365L24.1212 19.8599L23.8525 20.0892C23.5907 20.3125 23.2902 20.4856 22.9652 20.6012L22.6327 20.7195V21.0723V21.6732C22.2445 21.7356 21.8398 21.7375 21.4365 21.6728V21.0723V20.7195L21.104 20.6012C20.7789 20.4856 20.4785 20.3125 20.2167 20.0892L19.948 19.8599L19.6421 20.0365L19.1225 20.3367C18.8693 20.0259 18.6649 19.6763 18.521 19.2983L19.0413 18.9978L19.347 18.8213L19.283 18.4742C19.2204 18.1351 19.2204 17.789 19.283 17.4499L19.347 17.1028L19.0413 16.9262L18.5209 16.6257C18.665 16.2468 18.8694 15.8962 19.122 15.5871L19.6421 15.8875L19.948 16.0642L20.2167 15.8349C20.4785 15.6116 20.7789 15.4384 21.104 15.3228L21.4365 15.2046V14.8517V14.2509C21.8246 14.1884 22.2294 14.1866 22.6327 14.2512V14.8517V15.2046L22.9652 15.3228C23.2902 15.4384 23.5907 15.6116 23.8525 15.8349L24.1212 16.0642L24.427 15.8875L24.9472 15.5871C25.1997 15.8962 25.4041 16.2468 25.5482 16.6257L25.0278 16.9262L24.7222 17.1028L24.7862 17.4499C24.8487 17.789 24.8487 18.1351 24.7862 18.4742ZM25.16 20.4599L25.1572 20.4582C25.1582 20.4588 25.1591 20.4593 25.16 20.4599ZM18.9091 15.4642L18.912 15.4658C18.911 15.4653 18.9101 15.4648 18.9091 15.4642ZM17.8803 21.8105C17.9418 21.8761 18.0083 21.9362 18.0789 21.9902H9.35846C8.88462 21.9902 8.5 21.6056 8.5 21.1318V19.9544C8.5 18.1306 9.97988 16.6508 11.8037 16.6508H12.17C12.836 16.9396 13.5677 17.1036 14.3395 17.1036C15.1106 17.1036 15.8449 16.9399 16.5093 16.6508H16.5603C16.5249 17.1484 16.7227 17.6341 17.0968 17.9653C16.6319 18.3783 16.4379 19.0275 16.6294 19.6457C16.8755 20.4462 17.3101 21.1937 17.8779 21.8079L17.8778 21.8079L17.8803 21.8105ZM16.8753 16.3589L17.1073 16.4309L16.6299 16.2826C16.6298 16.2826 16.6298 16.2827 16.6298 16.2827L16.8753 16.3589ZM20.1648 17.962C20.1648 18.9931 21.0021 19.8346 22.0374 19.8346C23.0727 19.8346 23.91 18.9931 23.91 17.962C23.91 16.9302 23.0692 16.0894 22.0374 16.0894C21.0056 16.0894 20.1648 16.9302 20.1648 17.962ZM17.462 11.6226C17.462 13.3473 16.0642 14.7451 14.3395 14.7451C12.6147 14.7451 11.2169 13.3473 11.2169 11.6226C11.2169 9.8978 12.6147 8.5 14.3395 8.5C16.0642 8.5 17.462 9.8978 17.462 11.6226Z" stroke="#2E2E2E"/>
</svg>
