<svg width="32" height="32" viewBox="0 0 32 32" fill="none" xmlns="http://www.w3.org/2000/svg">
<circle cx="16" cy="16" r="16" fill="#FF0000" fill-opacity="0.3"/>
<path d="M17.6147 12.6265C17.6147 14.3243 16.2031 15.72 14.4367 15.72C12.6702 15.72 11.2586 14.3243 11.2586 12.6265C11.2586 10.9287 12.6702 9.53302 14.4367 9.53302C16.2031 9.53302 17.6147 10.9287 17.6147 12.6265ZM14.4367 18.0676C15.218 18.0676 15.9622 17.9053 16.6359 17.6184H17.0113C18.8783 17.6184 20.3733 19.0955 20.3733 20.8915V22.0594C20.3733 22.5163 19.9904 22.907 19.494 22.907H9.37928C8.88291 22.907 8.5 22.5163 8.5 22.0594V20.8915C8.5 19.0955 9.99496 17.6184 11.862 17.6184H12.2377C12.9131 17.905 13.6546 18.0676 14.4367 18.0676Z" stroke="#FF0000"/>
<path d="M23.8947 10.2727L23.7541 16.4347H22.3819L22.2455 10.2727H23.8947ZM23.068 19.0938C22.8095 19.0938 22.5879 19.0028 22.4032 18.821C22.2214 18.6392 22.1305 18.4176 22.1305 18.1562C22.1305 17.9006 22.2214 17.6818 22.4032 17.5C22.5879 17.3182 22.8095 17.2273 23.068 17.2273C23.3208 17.2273 23.5396 17.3182 23.7242 17.5C23.9117 17.6818 24.0055 17.9006 24.0055 18.1562C24.0055 18.3295 23.9615 18.4872 23.8734 18.6293C23.7882 18.7713 23.6745 18.8849 23.5325 18.9702C23.3933 19.0526 23.2384 19.0938 23.068 19.0938Z" fill="#FF0000"/>
</svg>
