<svg width="24" height="24" viewBox="0 0 24 24" fill="none" xmlns="http://www.w3.org/2000/svg">
<path fill-rule="evenodd" clip-rule="evenodd" d="M17.0412 1C20.6642 1 23.6112 3.94705 23.6112 7.57116V15.434C23.6112 19.057 20.6642 22.0051 17.0412 22.0051H7.57115C3.94815 22.0051 1 19.057 1 15.434V7.57116C1 3.94705 3.94815 1 7.57115 1H17.0412ZM17.0412 2.64334H7.57115C4.85417 2.64334 2.64334 4.85417 2.64334 7.57116V15.434C2.64334 18.151 4.85417 20.3618 7.57115 20.3618H17.0412C19.7581 20.3618 21.9679 18.151 21.9679 15.434V15.1272L18.3548 15.1279C16.2766 15.1279 14.585 13.4374 14.5839 11.3603C14.5839 9.28088 16.2755 7.58934 18.3548 7.58825L21.9679 7.58759V7.57116C21.9679 4.85417 19.7581 2.64334 17.0412 2.64334ZM21.9679 9.23092L18.3548 9.23158C17.1815 9.23268 16.2273 10.1869 16.2273 11.3592C16.2273 12.5303 17.1826 13.4845 18.3548 13.4845L21.9679 13.4839V9.23092ZM18.8562 10.4696C19.3097 10.4696 19.6778 10.8377 19.6778 11.2912C19.6778 11.7448 19.3097 12.1129 18.8562 12.1129H18.5144C18.0608 12.1129 17.6927 11.7448 17.6927 11.2912C17.6927 10.8377 18.0608 10.4696 18.5144 10.4696H18.8562ZM12.706 5.97175C13.1596 5.97175 13.5277 6.33986 13.5277 6.79342C13.5277 7.24698 13.1596 7.61509 12.706 7.61509H6.79112C6.33756 7.61509 5.96945 7.24698 5.96945 6.79342C5.96945 6.33986 6.33756 5.97175 6.79112 5.97175H12.706Z" fill="#515151"/>
</svg>
