<svg width="24" height="24" viewBox="0 0 24 24" fill="none" xmlns="http://www.w3.org/2000/svg">
<path fill-rule="evenodd" clip-rule="evenodd" d="M22.2106 15.0105C22.6651 15.0446 23.0052 15.4419 22.9711 15.8964L22.7619 18.6577C22.5892 20.9359 20.6665 22.7198 18.3829 22.7198H5.61648C3.33284 22.7198 1.41018 20.9359 1.23739 18.6577L1.02828 15.8964C0.994167 15.4419 1.33534 15.0446 1.78986 15.0105C2.24659 14.994 2.64059 15.3164 2.67581 15.7721L2.88381 18.5323C2.99167 19.9542 4.19127 21.069 5.61648 21.069H18.3829C19.8081 21.069 21.0088 19.9542 21.1155 18.5323L21.3246 15.7721C21.3598 15.3164 21.7638 14.9929 22.2106 15.0105ZM13.4196 0.994873C15.0737 0.994873 16.444 2.23438 16.6504 3.83322L18.8179 3.83418C21.1247 3.83418 23 5.71502 23 8.02838V11.8132C23 12.107 22.8437 12.3778 22.5917 12.5252C19.8752 14.1161 16.434 15.044 12.8249 15.1677L12.8253 17.1472C12.8253 17.6028 12.4555 17.9726 11.9999 17.9726C11.5443 17.9726 11.1745 17.6028 11.1745 17.1472L11.1738 15.168C7.56828 15.0454 4.12684 14.1173 1.4083 12.5252C1.15518 12.3778 1 12.107 1 11.8132V8.01737C1 5.71062 2.88084 3.83418 5.1931 3.83418L7.34942 3.83322C7.5558 2.23438 8.92612 0.994873 10.5802 0.994873H13.4196ZM18.8179 5.48501H5.1931C3.791 5.48501 2.65083 6.62078 2.65083 8.01737V11.3322C5.26322 12.7517 8.55663 13.5296 11.9846 13.5311L11.9999 13.5297L12.0121 13.5301L12.5361 13.5247C15.7781 13.4474 18.8709 12.6783 21.3492 11.3322V8.02838C21.3492 6.62518 20.2145 5.48501 18.8179 5.48501ZM13.4196 2.6457H10.5802C9.83913 2.6457 9.21358 3.15005 9.02879 3.8335H14.971C14.7862 3.15005 14.1606 2.6457 13.4196 2.6457Z" fill="#515151"/>
</svg>
