<svg width="24" height="24" viewBox="0 0 24 24" fill="none" xmlns="http://www.w3.org/2000/svg">
<path d="M9.13304 21.1832V17.8958C9.13304 17.0567 9.81831 16.3764 10.6636 16.3764H13.7536C14.1596 16.3764 14.5489 16.5365 14.8359 16.8214C15.123 17.1064 15.2842 17.4929 15.2842 17.8958V21.1832C15.2816 21.5321 15.4195 21.8675 15.6671 22.1151C15.9147 22.3627 16.2516 22.502 16.603 22.502H18.7112C19.6957 22.5045 20.6409 22.118 21.338 21.4277C22.0351 20.7375 22.4269 19.8002 22.4269 18.8228V9.45765C22.4269 8.6681 22.0743 7.91917 21.4643 7.41261L14.2927 1.72663C13.0452 0.729679 11.2578 0.761868 10.0475 1.80308L3.03963 7.41261C2.40073 7.90424 2.01887 8.65539 2 9.45765V18.8132C2 20.8505 3.66359 22.502 5.71573 22.502H7.77574C8.50567 22.502 9.09888 21.9174 9.10417 21.1928L9.13304 21.1832Z" fill="#2051E5"/>
</svg>
