<svg width="25" height="25" viewBox="0 0 25 25" fill="none" xmlns="http://www.w3.org/2000/svg">
<path d="M23.7909 13.8968C23.8701 13.9413 23.886 14.0358 23.8892 14.0718L23.8899 14.0861L23.8019 19.7671C23.8019 22.0332 22.0461 23.8812 19.8351 23.9945L19.6198 24H6.36918C4.13025 24 2.30446 22.2228 2.19253 19.9851L2.18709 19.7671L2.11006 14.0861C2.11006 14.0861 2.11006 13.9525 2.2091 13.8968C2.29715 13.8411 2.4072 13.9079 2.41821 13.919C4.64132 15.4117 7.31566 16.4031 10.1221 16.8152C10.5183 16.8709 10.9145 16.6147 11.0245 16.2137C11.2515 15.3574 11.9525 14.7752 12.81 14.7058L12.9835 14.6988H13.0165C13.952 14.6988 14.7334 15.3003 14.9755 16.2137C15.0855 16.6147 15.4817 16.8709 15.8779 16.8152C18.6843 16.4031 21.3587 15.4117 23.5818 13.919C23.5818 13.919 23.6038 13.9079 23.6258 13.8968C23.6698 13.8745 23.7359 13.8633 23.7909 13.8968ZM12.9945 16.2917C12.5809 16.2917 12.232 16.6099 12.1767 17.0147L12.1691 17.1271V18.5641C12.1691 19.0319 12.5433 19.3995 12.9945 19.3995C13.4182 19.3995 13.7587 19.0906 13.8125 18.6788L13.8199 18.5641V17.1271C13.8199 16.6704 13.4567 16.2917 12.9945 16.2917ZM14.4142 2C16.065 2 17.4187 3.25873 17.6278 4.87391H19.8069C22.1181 4.87391 24 6.77871 24 9.11794C24 9.11794 23.934 10.1082 23.912 11.4872C23.9098 11.5964 23.8569 11.7033 23.77 11.768C23.2406 12.1589 22.7564 12.482 22.7124 12.5043C20.8854 13.7296 18.7625 14.5917 16.5009 15.0206C16.3534 15.0496 16.2081 14.9727 16.1333 14.8413C15.4993 13.7429 14.3152 13.0278 12.9945 13.0278C11.6826 13.0278 10.4874 13.7351 9.83482 14.8346C9.75888 14.9638 9.61581 15.0384 9.46943 15.0106C7.22651 14.5806 5.10355 13.7195 3.28764 12.5154L2.23112 11.7802C2.14307 11.7245 2.08804 11.6243 2.08804 11.5129C2.05503 10.9448 2 9.11794 2 9.11794C2 6.77871 3.88194 4.87391 6.1931 4.87391H8.36118C8.57029 3.25873 9.92396 2 11.5748 2H14.4142ZM14.4142 3.67088H11.5748C10.8374 3.67088 10.2101 4.18328 10.034 4.87391H15.955C15.7789 4.18328 15.1516 3.67088 14.4142 3.67088Z" fill="#2051E5"/>
</svg>
