<svg width="14" height="15" viewBox="0 0 14 15" fill="none" xmlns="http://www.w3.org/2000/svg">
<g clip-path="url(#clip0_293_735)">
<path d="M9.02717 1.37464C9.02717 1.08594 9.31256 0.85144 9.66541 0.85144C10.0183 0.85144 10.3036 1.08594 10.3036 1.37464V3.66655C10.3036 3.95525 10.0183 4.18975 9.66541 4.18975C9.31256 4.18975 9.02717 3.95525 9.02717 3.66655V1.37464ZM7.31267 12.3342C7.27506 12.3342 7.24519 12.176 7.24519 11.9802C7.24519 11.7844 7.27506 11.6263 7.31267 11.6263H9.05925C9.09686 11.6263 9.12673 11.7844 9.12673 11.9802C9.12673 12.176 9.09686 12.3342 9.05925 12.3342H7.31267ZM1.75325 8.27248C1.71564 8.27248 1.68578 8.1143 1.68578 7.91852C1.68578 7.72273 1.71564 7.56456 1.75325 7.56456H3.49983C3.53744 7.56456 3.56731 7.72273 3.56731 7.91852C3.56731 8.1143 3.53744 8.27248 3.49983 8.27248H1.75325ZM4.53296 8.27248C4.49535 8.27248 4.46549 8.1143 4.46549 7.91852C4.46549 7.72273 4.49535 7.56456 4.53296 7.56456H6.27954C6.31715 7.56456 6.34702 7.72273 6.34702 7.91852C6.34702 8.1143 6.31715 8.27248 6.27954 8.27248H4.53296ZM7.31267 8.27248C7.27506 8.27248 7.24519 8.1143 7.24519 7.91852C7.24519 7.72273 7.27506 7.56456 7.31267 7.56456H9.05925C9.09686 7.56456 9.12673 7.72273 9.12673 7.91852C9.12673 8.1143 9.09686 8.27248 9.05925 8.27248H7.31267ZM10.0935 8.27248C10.0559 8.27248 10.026 8.1143 10.026 7.91852C10.026 7.72273 10.0559 7.56456 10.0935 7.56456H11.8401C11.8777 7.56456 11.9075 7.72273 11.9075 7.91852C11.9075 8.1143 11.8777 8.27248 11.8401 8.27248H10.0935ZM1.75325 10.3033C1.71564 10.3033 1.68578 10.1452 1.68578 9.94938C1.68578 9.75359 1.71564 9.59541 1.75325 9.59541H3.49983C3.53744 9.59541 3.56731 9.75359 3.56731 9.94938C3.56731 10.1452 3.53744 10.3033 3.49983 10.3033H1.75325ZM4.53296 10.3033C4.49535 10.3033 4.46549 10.1452 4.46549 9.94938C4.46549 9.75359 4.49535 9.59541 4.53296 9.59541H6.27954C6.31715 9.59541 6.34702 9.75359 6.34702 9.94938C6.34702 10.1452 6.31715 10.3033 6.27954 10.3033H4.53296ZM7.31267 10.3033C7.27506 10.3033 7.24519 10.1452 7.24519 9.94938C7.24519 9.75359 7.27506 9.59541 7.31267 9.59541H9.05925C9.09686 9.59541 9.12673 9.75359 9.12673 9.94938C9.12673 10.1452 9.09686 10.3033 9.05925 10.3033H7.31267ZM10.0935 10.3033C10.0559 10.3033 10.026 10.1452 10.026 9.94938C10.026 9.75359 10.0559 9.59541 10.0935 9.59541H11.8401C11.8777 9.59541 11.9075 9.75359 11.9075 9.94938C11.9075 10.1452 11.8777 10.3033 11.8401 10.3033H10.0935ZM1.75325 12.3342C1.71564 12.3342 1.68578 12.176 1.68578 11.9802C1.68578 11.7844 1.71564 11.6263 1.75325 11.6263H3.49983C3.53744 11.6263 3.56731 11.7844 3.56731 11.9802C3.56731 12.176 3.53744 12.3342 3.49983 12.3342H1.75325ZM4.53296 12.3342C4.49535 12.3342 4.46549 12.176 4.46549 11.9802C4.46549 11.7844 4.49535 11.6263 4.53296 11.6263H6.27954C6.31715 11.6263 6.34702 11.7844 6.34702 11.9802C6.34702 12.176 6.31715 12.3342 6.27954 12.3342H4.53296ZM3.27529 1.37464C3.27529 1.08594 3.56067 0.85144 3.91353 0.85144C4.26638 0.85144 4.55176 1.08594 4.55176 1.37464V3.66655C4.55176 3.95525 4.26638 4.18975 3.91353 4.18975C3.56067 4.18975 3.27529 3.95525 3.27529 3.66655V1.37464ZM0.707955 5.86443H12.8832V3.22631C12.8832 3.13782 12.8466 3.05707 12.788 2.99734C12.7294 2.93871 12.6487 2.90221 12.5591 2.90221H11.3932C11.1974 2.90221 11.0392 2.74403 11.0392 2.54825C11.0392 2.35246 11.1974 2.19428 11.3932 2.19428H12.5602C12.8444 2.19428 13.1022 2.31043 13.2891 2.49736C13.476 2.6843 13.5922 2.94203 13.5922 3.22631V6.2195V13.4127C13.5922 13.697 13.476 13.9547 13.2891 14.1416C13.1022 14.3286 12.8444 14.4447 12.5602 14.4447H1.03205C0.747776 14.4447 0.490047 14.3286 0.303111 14.1416C0.116174 13.9536 3.05176e-05 13.6958 3.05176e-05 13.4116V6.21839V3.22631C3.05176e-05 2.94203 0.116174 2.6843 0.303111 2.49736C0.490047 2.31043 0.747776 2.19428 1.03205 2.19428H2.27866C2.47445 2.19428 2.63262 2.35246 2.63262 2.54825C2.63262 2.74403 2.47445 2.90221 2.27866 2.90221H1.03205C0.943561 2.90221 0.862813 2.93871 0.803082 2.99734C0.744457 3.05596 0.707955 3.13671 0.707955 3.22631V5.86443ZM12.8843 6.57346H0.707955V13.4116C0.707955 13.5001 0.744457 13.5808 0.803082 13.6405C0.861707 13.6992 0.942455 13.7357 1.03205 13.7357H12.5602C12.6487 13.7357 12.7294 13.6992 12.7891 13.6405C12.8478 13.5819 12.8843 13.5012 12.8843 13.4116V6.57346ZM5.57825 2.90221C5.38247 2.90221 5.22429 2.74403 5.22429 2.54825C5.22429 2.35246 5.38247 2.19428 5.57825 2.19428H7.95533C8.15112 2.19428 8.30929 2.35246 8.30929 2.54825C8.30929 2.74403 8.15112 2.90221 7.95533 2.90221H5.57825Z" fill="#445668"/>
</g>
<defs>
<clipPath id="clip0_293_735">
<rect width="13.5921" height="13.5921" fill="white" transform="translate(3.05176e-05 0.85144)"/>
</clipPath>
</defs>
</svg>
