<svg width="100" height="100" viewBox="0 0 100 100" fill="none" xmlns="http://www.w3.org/2000/svg">
<path d="M84.75 17.37C77.06 9.43998 67.67 5.09998 56.59 4.34998L45.7 26.85H53.05C59.41 26.85 64.6 28.96 68.61 33.19C72.62 37.42 74.62 43.02 74.62 49.99C74.62 56.96 72.61 62.56 68.61 66.79C64.6 71.02 59.42 73.13 53.05 73.13H39.85V63.36L15.81 95.75H22.57L30.06 85.66H36.78L29.29 95.75H36.06L43.55 85.66H50.26L42.77 95.75H49.52L57.01 85.66H63.78L63.23 86.4L56.37 95.64C67.55 94.93 77.01 90.59 84.75 82.61C93.25 73.85 97.5 62.98 97.5 49.99C97.5 37 93.25 26.13 84.75 17.37Z" fill="#2C9CD8"/>
<path d="M20.55 4.23996H50.2L30.86 44.2H47.62L8.95 95.77L20.55 54.52H2.5C2.5 54.52 20.55 3.75996 20.55 4.23996Z" fill="#FFDE17"/>
</svg>
