<svg width="224" height="137" viewBox="0 0 224 137" fill="none" xmlns="http://www.w3.org/2000/svg">
<g clip-path="url(#clip0_297_724)">
<path d="M206.173 -3.05053C196.078 45.2645 144.979 76.9516 92.041 67.7246C39.1025 58.4976 4.37116 11.8506 14.4663 -36.4644C24.5614 -84.7794 75.6602 -116.466 128.599 -107.239C181.537 -98.0125 216.268 -51.3655 206.173 -3.05053Z" fill="url(#paint0_linear_297_724)" fill-opacity="0.1"/>
<path d="M96.7935 44.9792C86.6983 93.2942 35.5995 124.981 -17.3389 115.754C-70.2773 106.527 -105.009 59.8804 -94.9136 11.5654C-84.8185 -36.7496 -33.7197 -68.4367 19.2188 -59.2097C72.1572 -49.9827 106.889 -3.33575 96.7935 44.9792Z" fill="url(#paint1_linear_297_724)" fill-opacity="0.1"/>
</g>
<defs>
<linearGradient id="paint0_linear_297_724" x1="19.2188" y1="-59.2098" x2="-11.4556" y2="116.78" gradientUnits="userSpaceOnUse">
<stop stop-color="#2051E5"/>
<stop offset="1" stop-color="#DEE6FF"/>
</linearGradient>
<linearGradient id="paint1_linear_297_724" x1="19.2188" y1="-59.2098" x2="-11.4556" y2="116.78" gradientUnits="userSpaceOnUse">
<stop stop-color="#2051E5"/>
<stop offset="1" stop-color="#DEE6FF"/>
</linearGradient>
<clipPath id="clip0_297_724">
<rect width="224" height="137" fill="white"/>
</clipPath>
</defs>
</svg>
