<svg width="32" height="32" viewBox="0 0 32 32" fill="none" xmlns="http://www.w3.org/2000/svg">
<circle cx="16" cy="16" r="16" fill="#88F8B4"/>
<path d="M20.9104 15.7617L21.2626 16.1162L21.6173 15.7642L24.3447 13.0576L24.8533 13.5717L21.2565 17.1404L19.2808 15.1502L19.7953 14.6393L20.9104 15.7617ZM24.9793 13.699C24.9787 13.6984 24.978 13.6978 24.9774 13.6971L24.9793 13.699ZM21.381 17.2658C21.3816 17.2664 21.3822 17.267 21.3828 17.2677L21.3828 17.2677L21.381 17.2658ZM19.1554 15.2747C19.1548 15.2753 19.1541 15.2759 19.1535 15.2765L19.1535 15.2765L19.1554 15.2747ZM19.6709 14.514C19.6702 14.5134 19.6696 14.5127 19.6689 14.512L19.6689 14.512L19.6709 14.514ZM17.084 12.4851C17.084 14.1339 15.7477 15.4702 14.0989 15.4702C12.4501 15.4702 11.1138 14.1339 11.1138 12.4851C11.1138 10.8363 12.4501 9.5 14.0989 9.5C15.7477 9.5 17.084 10.8363 17.084 12.4851ZM14.0989 17.7771C14.8421 17.7771 15.5498 17.6196 16.1903 17.3414H16.5385C18.2826 17.3414 19.6978 18.7567 19.6978 20.5008V21.6334C19.6978 22.0788 19.3363 22.4403 18.8909 22.4403H9.30691C8.86153 22.4403 8.5 22.0788 8.5 21.6334V20.5008C8.5 18.7567 9.91522 17.3414 11.6593 17.3414H12.0079C12.6499 17.6193 13.355 17.7771 14.0989 17.7771Z" stroke="#008535"/>
</svg>
