<svg width="32" height="32" viewBox="0 0 32 32" fill="none" xmlns="http://www.w3.org/2000/svg">
<circle cx="16" cy="16" r="16" fill="#FF00A8" fill-opacity="0.3"/>
<path d="M15.6401 7C10.8671 7 7 10.8671 7 15.6401C7 20.4131 10.8671 24.2802 15.6401 24.2802C20.4131 24.2802 24.2802 20.4131 24.2802 15.6401C24.2802 10.8671 20.4131 7 15.6401 7ZM20.6569 16.6156C20.6569 16.8455 20.4688 17.0337 20.2389 17.0337H17.0337V20.2389C17.0337 20.4688 16.8455 20.6569 16.6156 20.6569H14.6646C14.4347 20.6569 14.2465 20.4688 14.2465 20.2389V17.0337H11.0413C10.8114 17.0337 10.6233 16.8455 10.6233 16.6156V14.6646C10.6233 14.4347 10.8114 14.2465 11.0413 14.2465H14.2465V11.0413C14.2465 10.8114 14.4347 10.6233 14.6646 10.6233H16.6156C16.8455 10.6233 17.0337 10.8114 17.0337 11.0413V14.2465H20.2389C20.4688 14.2465 20.6569 14.4347 20.6569 14.6646V16.6156Z" fill="white"/>
</svg>
