<svg width="349" height="267" viewBox="0 0 349 267" fill="none" xmlns="http://www.w3.org/2000/svg">
<g clip-path="url(#clip0_295_684)">
<rect width="349" height="267" fill="white"/>
<rect x="108" y="254" width="134" height="5" rx="2.5" fill="white"/>
<path d="M14.0638 286.566C16.8605 202.909 93.0018 135.091 184.13 135.091C275.259 135.091 346.866 202.909 344.069 286.566C341.272 370.223 265.131 438.041 174.003 438.04C82.8742 438.04 11.2671 370.223 14.0638 286.566Z" fill="url(#paint0_linear_295_684)" fill-opacity="0.1"/>
<path d="M182.814 174.475C185.61 90.8176 261.752 23.0001 352.88 23.0001C444.009 23.0001 515.616 90.8177 512.819 174.475C510.022 258.132 433.881 325.949 342.753 325.949C251.624 325.949 180.017 258.132 182.814 174.475Z" fill="url(#paint1_linear_295_684)" fill-opacity="0.1"/>
</g>
<defs>
<linearGradient id="paint0_linear_295_684" x1="342.753" y1="325.949" x2="342.753" y2="23.0002" gradientUnits="userSpaceOnUse">
<stop stop-color="#2051E5"/>
<stop offset="1" stop-color="#DEE6FF"/>
</linearGradient>
<linearGradient id="paint1_linear_295_684" x1="342.753" y1="325.949" x2="342.753" y2="23.0002" gradientUnits="userSpaceOnUse">
<stop stop-color="#2051E5"/>
<stop offset="1" stop-color="#DEE6FF"/>
</linearGradient>
<clipPath id="clip0_295_684">
<rect width="349" height="267" fill="white"/>
</clipPath>
</defs>
</svg>
