<svg width="24" height="24" viewBox="0 0 24 24" fill="none" xmlns="http://www.w3.org/2000/svg">
<path d="M17.4098 1C21.3088 1 23.61 3.31646 23.61 7.28176H18.8267V7.32222C16.6068 7.32222 14.8072 9.13377 14.8072 11.3684C14.8072 13.6031 16.6068 15.4147 18.8267 15.4147H23.61V15.7788C23.61 19.6935 21.3088 22.01 17.4098 22.01H7.20017C3.3012 22.01 1 19.6935 1 15.7788V7.23118C1 3.31646 3.3012 1 7.20017 1H17.4098ZM22.7659 9.02163C23.2321 9.02163 23.61 9.40206 23.61 9.87134V12.8251C23.6046 13.2921 23.2298 13.6693 22.7659 13.6748H18.9172C17.7933 13.69 16.8106 12.9154 16.5557 11.8135C16.428 11.1295 16.6072 10.4236 17.0453 9.88515C17.4833 9.34665 18.1354 9.03058 18.8267 9.02163H22.7659ZM19.3694 10.3872H18.9976C18.7693 10.3845 18.5494 10.4739 18.3871 10.6355C18.2247 10.797 18.1334 11.0173 18.1334 11.2471C18.1333 11.7292 18.5187 12.1216 18.9976 12.1271H19.3694C19.8467 12.1271 20.2336 11.7376 20.2336 11.2572C20.2336 10.7767 19.8467 10.3872 19.3694 10.3872ZM12.7371 5.54188H6.35606C5.88267 5.54185 5.49736 5.92521 5.49185 6.4017C5.49185 6.88382 5.87715 7.27622 6.35606 7.28176H12.7371C13.2144 7.28176 13.6013 6.89227 13.6013 6.41182C13.6013 5.93137 13.2144 5.54188 12.7371 5.54188Z" fill="#2051E5"/>
</svg>
