<svg width="39" height="39" viewBox="0 0 39 39" fill="none" xmlns="http://www.w3.org/2000/svg">
<path d="M22.9891 7.41369L26.1582 10.8274H33.1719V31.3095H5.46354V10.8274H12.4772L15.6464 7.41369H22.9891ZM24.513 4H14.1224L10.9533 7.41369H5.46354C3.55859 7.41369 2 8.94985 2 10.8274V31.3095C2 33.1871 3.55859 34.7232 5.46354 34.7232H33.1719C35.0768 34.7232 36.6354 33.1871 36.6354 31.3095V10.8274C36.6354 8.94985 35.0768 7.41369 33.1719 7.41369H27.6822L24.513 4ZM19.3177 15.9479C22.1751 15.9479 24.513 18.2522 24.513 21.0685C24.513 23.8847 22.1751 26.189 19.3177 26.189C16.4603 26.189 14.1224 23.8847 14.1224 21.0685C14.1224 18.2522 16.4603 15.9479 19.3177 15.9479ZM19.3177 12.5342C14.538 12.5342 10.6589 16.3576 10.6589 21.0685C10.6589 25.7793 14.538 29.6027 19.3177 29.6027C24.0974 29.6027 27.9766 25.7793 27.9766 21.0685C27.9766 16.3576 24.0974 12.5342 19.3177 12.5342Z" fill="#636363"/>
</svg>
