<svg width="24" height="24" viewBox="0 0 24 24" fill="none" xmlns="http://www.w3.org/2000/svg">
<path fill-rule="evenodd" clip-rule="evenodd" d="M13.2338 15.7019C14.3882 15.7019 15.3278 16.6348 15.3278 17.7815V20.7306C15.3278 20.977 15.5253 21.1745 15.7784 21.1803H17.6058C19.0458 21.1803 20.2165 20.024 20.2165 18.6031V10.2389C20.2098 9.74992 19.9768 9.28971 19.577 8.98387L13.2559 3.94269C12.4074 3.2706 11.2204 3.2706 10.369 3.94461L4.09106 8.98195C3.67592 9.29738 3.44294 9.75759 3.43814 10.2552V18.6031C3.43814 20.024 4.60879 21.1803 6.04886 21.1803H7.89352C8.15334 21.1803 8.36427 20.9742 8.36427 20.721C8.36427 20.6654 8.37098 20.6098 8.38248 20.5571V17.7815C8.38248 16.6415 9.31632 15.7096 10.462 15.7019H13.2338ZM17.6058 22.6184H15.7611C14.7046 22.5935 13.8896 21.7642 13.8896 20.7306V17.7815C13.8896 17.4277 13.5953 17.1401 13.2338 17.1401H10.4668C10.1131 17.142 9.82063 17.4306 9.82063 17.7815V20.721C9.82063 20.793 9.81104 20.862 9.79091 20.9272C9.68736 21.8764 8.87625 22.6184 7.89352 22.6184H6.04886C3.8159 22.6184 2 20.8169 2 18.6031V10.2485C2.00959 9.29547 2.4487 8.42299 3.20708 7.84869L9.4726 2.81998C10.8523 1.72699 12.7746 1.72699 14.1514 2.81806L20.4619 7.85157C21.2031 8.41628 21.6422 9.28684 21.6546 10.2283V18.6031C21.6546 20.8169 19.8387 22.6184 17.6058 22.6184Z" fill="#515151"/>
</svg>
