<svg width="22" height="22" viewBox="0 0 22 22" fill="none" xmlns="http://www.w3.org/2000/svg">
<circle cx="11" cy="11" r="11" fill="#2051E5" fill-opacity="0.2"/>
<path d="M12.625 15.125H13.125V13.25H12.625V15.125ZM12.875 12.7625C12.9417 12.7625 13 12.7369 13.05 12.6856C13.1 12.6344 13.125 12.5746 13.125 12.5063C13.125 12.4379 13.1 12.3781 13.05 12.3269C13 12.2756 12.9417 12.25 12.875 12.25C12.8 12.25 12.7396 12.275 12.6938 12.325C12.6479 12.375 12.625 12.4345 12.625 12.5036C12.625 12.5726 12.6479 12.633 12.6938 12.6848C12.7396 12.7366 12.8 12.7625 12.875 12.7625ZM7.25 6.75V10.4375V10.3875V15.25V6.75ZM8.4875 11.75H10.5692C10.6731 11.6083 10.7875 11.475 10.9125 11.35C11.0375 11.225 11.1708 11.1083 11.3125 11H8.4875V11.75ZM8.4875 13.875H10.025C10.0083 13.7583 10.0021 13.6354 10.0063 13.5063C10.0104 13.3771 10.0208 13.25 10.0375 13.125H8.4875V13.875ZM7.25 16C7.05 16 6.875 15.925 6.725 15.775C6.575 15.625 6.5 15.45 6.5 15.25V6.75C6.5 6.55 6.575 6.375 6.725 6.225C6.875 6.075 7.05 6 7.25 6H11.7625L14.5 8.7375V10.675C14.3833 10.625 14.2625 10.5792 14.1375 10.5375C14.0125 10.4958 13.8833 10.4625 13.75 10.4375V9.075H11.3875V6.75H7.25V15.25H10.4875C10.5792 15.3917 10.679 15.5254 10.787 15.6511C10.8949 15.7768 11.016 15.8931 11.15 16H7.25ZM13.1875 11.1375C13.8584 11.1375 14.4303 11.3739 14.9032 11.8468C15.3761 12.3197 15.6125 12.8916 15.6125 13.5625C15.6125 14.2334 15.3761 14.8053 14.9032 15.2782C14.4303 15.7511 13.8584 15.9875 13.1875 15.9875C12.5166 15.9875 11.9447 15.7511 11.4718 15.2782C10.9989 14.8053 10.7625 14.2334 10.7625 13.5625C10.7625 12.8916 10.9989 12.3197 11.4718 11.8468C11.9447 11.3739 12.5166 11.1375 13.1875 11.1375Z" fill="#2051E5"/>
</svg>
