<svg width="25" height="25" viewBox="0 0 25 25" fill="none" xmlns="http://www.w3.org/2000/svg">
<path fill-rule="evenodd" clip-rule="evenodd" d="M21 18.3793C21 21.9167 16.149 22.3256 12.5011 22.3256L12.24 22.3253C9.91588 22.3197 4 22.1729 4 18.3578C4 14.8926 8.65606 14.4295 12.2762 14.4121L12.7621 14.4118C15.0861 14.4174 21 14.5641 21 18.3793ZM12.5011 16.0214C7.92803 16.0214 5.60985 16.807 5.60985 18.3578C5.60985 19.9226 7.92803 20.7157 12.5011 20.7157C17.073 20.7157 19.3902 19.9301 19.3902 18.3793C19.3902 16.8145 17.073 16.0214 12.5011 16.0214ZM12.5011 1C15.6435 1 18.1989 3.55644 18.1989 6.69886C18.1989 9.84129 15.6435 12.3967 12.5011 12.3967H12.4667C9.33074 12.387 6.7904 9.82948 6.8011 6.69564C6.8011 3.55644 9.35758 1 12.5011 1ZM12.5011 2.53258C10.2033 2.53258 8.33369 4.40107 8.33369 6.69886C8.3262 8.98914 10.1818 10.8566 12.4699 10.8652L12.5011 11.6314V10.8652C14.7978 10.8652 16.6663 8.99558 16.6663 6.69886C16.6663 4.40107 14.7978 2.53258 12.5011 2.53258Z" fill="#515151"/>
</svg>
